<svg xmlns="http://www.w3.org/2000/svg" width="2320" height="1200"><g><path fill="#e6e6e6" d="M956.15 0c-1.66 0-3.4 0-5.16.03-4.55.05-9.1.2-13.46.46-7.95.45-19.75 1.03-26.2 1.28-22.46-.36-55.2 5.1-74.44 5.2-10.88-5.84-27.5-4.26-37.57-4.33-26.04-.92-49.73 3.03-73.75 4.4-22.98 2.07-19.34 1.3-28.73 3.93-11.25 4.3-23.34 1.67-14.4 13.97 17.54 4 10.4 5.17 7.44 8.28-10.57 3.34-14.77.57-22.75.46-3.7-3.2-16.8 1.5-13.35 1.66.58 7.35-7.95 7.82-6.7.2-7.8 1.8-10.76 2-27.23-.4-2.05.8-4.98 3.77-3.7 3.77 3.94 3.55 13.82 6.42 16.4 6.34 11.74-5.2 10.1 3.2 11.86 3.27 10.8.13 17.3-9.54 22.64-9.03 1.33 2.23-7.95 6.46-4.87 7.4 6.77 1.34 35.8 1.97 37.2.82 4.6-.2 21.98.98 22.35-5.18-16.03-.18-49.6 4-40.52-3.6 16.78-5.37 31.24 1 44.53 1.74.8-2.44 12.38-4.83 12.6-6.74 5.13-6.12 17.4-6.2 21.34-8.03 7.1-4.53 13.93-6.12 19.66-6.68 11.08-3.07 17.94-4.44 29.75-1.28 0 1.72-4.1 2.9-12.22 3.57-5.37 1.02-35.24 1.2-32.8 9.68 22.03 15.16 19.33 2.77 45.38 8.7 21.47 4.2-2.6 18.1 3.4 26.52-3.97 9.93-6.64 21.8-8.1 28.15 3.8 3.13-1.82 8.36.6 19.85-1.5 5.55 7.08 16.17 8.12 21.48 9.2-.68 19.66 9.67 25.08 6.04 2.44-3.42 4.57-6.58 7.6-9.67 4.03-6.02 7.8-11.3 14.67-14.33.68-5.77 9.78-9.74 10.66-12.7 6.37-4.54 12.17 2.14 16.24-2.56 8.74.05 18.36-11.07 24.64-12.67 10.2-5.1 25.1-1.98 38.96-8.3 8.88-2.43 16.1-8.66 20.7-13.14-7.44-8.96-4.38-7.16 13.9-18.32 4.75-1.84 9.58-3.64 13.2-5.22-7.6-7.88.58-10.07.25-11.98-2.15-19.23-1.17-14.2 28.2-22 8.75-1.57 6.65-2.82-5.67-3.37-14.23.6-28.87-2.65-39.84-5.87C978.5.7 967.93.04 956.14 0zm354.26 9.67c-3.85-.42-11 5.73-13.7 5.3-2.3 1.1 2.2 1.57 3.22 1.68 6.3-1.8 1.35-2.53 6.47-.98 4.15.23 19.82 3.7 29.52-2.16-4.32-2.5-10.65-3.2-15.2-3.34 1.42-2.9-1.6-4.65-10.3-.5zm148.8 8.8c7.58 1.12 38.96 8.68 42.27 4.68-7.15-5.5-22.1-5.07-19.74-8.98-2.6-6.75-28.43-2.8-22.54 4.3zm-174.13-6.48c-5.6 4.36-7.84.22-16.86 1.57-4.4 2.56 18.8 4.06 23.6 4.26 3.12-2.95-2.7-1.83.87-4.23-2.4-1.48-5.84-2.12-7.6-1.6zm-130.78 4.08c-25.8.17-30.3 1.53-30.06 3.4 4.54 8.24 2.47 5.93 21.66 15.08 5.16 2.5 7.17 2.28 7.86-.87 4.52-9.62 20.17-6.27 15.56-3.6-2.9 4.18 13.86 2.3 15.9-.78-6.6-2.37-29.08-5.5-14.24-8.35-1.3 2.13 27.3-1.08 21.05-4.6-8.42.1-31.3-5.03-37.74-.3zm351.02 4.37c-.2 2.72-.77 5.6.08 8 1.93 0 20-1.87 21.67-2.24 3.47-2.26-18.62-7-21.75-5.75zm21.3 9c-1.38 0-2.7.08-3.65.28-3.32.72-5.07 3.46-3.5 5.33-.07 1-12.35 3.8-13.54 2.86.87-1.48-16-.2-17.56 1.34-7.34 2.35-15.33 3.18-22.72 5.8-.36 3.9-4.86-.42-6.02 2.3-.45 2.4 5.88 1.3 8.82 3.6-5.8 2.62-19.2 1.24-26.12 2.28 4.88 5.88 19.64 10.7 16.95 10.92-9.63-.27-37.5-12.43-41.33-8.05 2.26 5.6 12.3.14.8 10.1 5.24 3.4 8.9 8.47 11.52 14.56 2.08 2.02 15.23-.5 9.35 1.15-4.7 3.2-1.4 6.64-1.5 11.74-1.23 2.44-6.1 5.6-8.02 5.22-6.85-1.74-1.64-1.82-.26-4.86 3.23-4.64 3.6-8.73-1.14-10.84-3.95-2.12-6.8-6.88-7.78-11.3-9.43-7.42-5.72-10.78-6.72-12.23-2.02-2.05-13.67-2.95-10.14-3.14 7.12-.84-7.15-4.36-6.8-1.62-.88 3.34-3.05 10.7-4.55 11.57-5.96 4.63 1.7 3.85 1.75 8.16-.27 5.2 15.8 6.9 13.54 10.6-12.3-2.4-26.14-7.98-38.88-8.8-3.8.84-12.56-5.93-15.03-3.53-.5 5.2 9.47 5.24 13 8.46 1.82 2-3.38 4.76-4.88 3.17-3.1-4-7.76-.55-15.2-.36-1.27 2.73-12.58 2.72-9.62-1.8-2.72-2.1-8.86 1.82-12.05 2.2-4.37-.02-7.52 4-11.7 4.22-4.7.52-1.84 9.18-14.42 5.65-4.9-2.63.08-4.23 3.75-5.23-5.13-5.78-22.68-7.52-16.86-3.5 4.9 1.45 1 7.23 4.8 9 6.6 5.53-4.6 6-6.55 2.3-2.43-.36-4 2.92-7 4-2.6.82-4.2 2.34-6.36 4.06 8.96 9.62.42 4.26-13.27 2.07-4.66 4.46 5 4.5 6.9 6.53.87 2.24-4.46 1.93-9-.52-4.24-.64-5.74-3.4-7.95-5.56-2.1-8.55-3.93-5.8-8.12-9.53-.35-.82 1.22-.74 6.64.37 18.25 3.73 23.32 3.72 28.74-.1 7.34-4-5.68-12.3-7.86-10.9-4.37-1.45-9.8-3.45-13.28-4.95-6.02-3.37-15.04-.83-20.1-4.6-4.83-2.95-11.3-1.17-16.16-1.76 2-.55 4.35-1.68 5.33-2.92-3.23-.5-13.1-4.48-15.73-4.5-7.86 1.34-9.13-2.25-12.3 0-3.37 1.6-16.53.64-15.74 3.5-2.58 2.15-8.13 3.07-8.4 2.83-2.08-1.97-7.76-1.12-7.76 1.17 0 1.27-.1 1.34-3.23 1.67-5.1 3.63-17.24 3.9-16.24 7.22.1 2.36-7.1.52-7.6 3.66 2.3 1.58 3.94-.63 6.98-1.3 4.72 1.92-5.2 11.34-7.86 12.08-4.18 4.1-8.36 10.73-8.65 10.84-7.65 6.6-11.22 5-12.58 6.47-4.97 5.1-11.26 6.63-16.07 9.5-2.62 1.6-2.7 1.85-2.8 8.25.76 5.43 1.52 13.58 1.75 13.62 3.74 5.76 11.56 9.44 17.47 5.7 1.66-1.18 4.63-2.98 6.73-4 2-1.04 3.75-2.55 3.75-3.34.36-2.12 3.38 4.27 3.4 4.97 1 4.18 3.92 8.52 6.56 11.35 2.4 2.3 2.44 4.28.62 6.18-6.1-.38-8.2 2.28-8.92-.33 2.98-3.18-5.02-3.9-1.83-6.1 1.06-.6.97-5.7-.08-5.7-1.8 1.7-4.9 4.33-7.77 4.37-4.72 0-7.95 9.3-4.46 12.94 1.84 2.36-.4 3.04-.1 5.02 2.4 2.5 2.44 7.5-2.44 6.84-3.77-.94-6.6 2.12-10.05 1.66-4.1-.6-7.85 1.7-8.55 5.24-.87 4.65-6.64 9.9-13.2 12.04-3.84 1.26-4.45 1.78-5.06 4.6-.9 5.27-6.34 2.96-8.66 6.73-3.97 3.82-11.3-6.04-11.62.15 1.84 5.9 1.66 6.4-1.92 6.38-4.7-.48-9.84-1.64-14.24.5-2.6 3-.3 6.3 2 6.44 11.95.7 18.1 16.43 14.42 28.23-.96 3.2-3.4 4.93-5.85 4.15-10.58-2.8-19.88.92-29.44-2.43-3.7-1.23-13.1 3.8-11.8 7.45.43 1.2.96 4.9 1.04 8.2-.04 7.6-1.95 11.92-5.15 16.92-.72 8.7 3.48 9.86 2.1 15.7 1.55 6.5 12-3.35 15.62 5 4.85 8.12 3.7 2.7.44 10.52-2.97 7.24-4.98 9.57-10.4 12.15-9.05 3.9-8.64 8.07-12.5 13.5-6.56 15.2 2.24 20.92-21.22 28.74-2.3 1.14-15.17 18.7-15.3 21.22-6.16 10.33-13.6 20.23-16.32 31.97.3 3.3 3.42-.1 4.54 14.3 1.5 12.62-3.88 26-9.17 32.97 9.4 6.63.9 14.28 6.97 20.46 7.48 7.6 9.48 9.5 15.73 16.16 3.17 3.4 7 13.67 7.43 16.88 8.02 5.8 15.2 11.3 20.44 16 10.57 9.57 13.2 10.4 21.14 6.53 4.64-2.23 6.9-2.75 13.55-3.08 7.34-.36 11.27.24 15.38 2.3 6.92.74 12.7-6.75 19.74-7.1 6.03-3.1 12.48-4.36 18.26-4.56 6.72-.73 13 3.9 13.37 11.03 3.1 7.65 12.96 3.6 19.83 2.83 8.46.87 10.52 15.17 7.16 22.3-.9 2.25-.56 18.03-4.46 15.9-2.78 11.14 21.18 27.55 22 37.97 6.46 10.3 5.9 27.64 7.88 32.65 1.92 4.85 2.8 8.53 2.7 11.17-6.14 8.94-6.33 24.72-13 33.2-3.85 16.54 5.72 26.6 10.73 38.87 7.4 12.98 6.9 25.38 9.6 40.1 1.7 12.55 26.3 40.64 17.75 49.66 1.3 10.86 4.4 8.43 9.35 13.76 1.92 2.18 3.67 2.18 5.85.26 6.8-5.8 21.78-3.6 29.1-3.76 9.44-2.6 20.1-7.03 27.08-14.7 10-3.83 11.82-23.92 21.4-25.48 10.05-15.55 3.94-24.37 14.42-28.73 13.65-9.8 5.83-25.05 5.67-35.37 1.65-4.32 21.23-22.1 24.2-23.3 7.6-2.82 13.86-9.2 16.7-16.75 1.1-7.36-.8-15.03-.7-22.06.88-20.56-3.53-13.36-5.5-22 .04-11.32-2.22-16.1-5-23.9 1.65-16.3 14.56-25.34 20.63-35.9 3.75-7.4 15.55-20.13 22.8-24.64 4.72-2.95 18.52-18.13 18.6-20.43 6.68-12.68 17.2-25.14 17.48-39.3 4.24-4.95 2.58-20.7-3.32-15.24-7.9 5.75-26.82 4.85-33.8 8.96-18.17 6.48-13.34-13.72-16.35-16.9-13.43-17.22-22.98-16.28-25.15-25.55-2.74-15.67-13.83-17.48-14.33-31-4.38-18.33-10.1-22.62-16.95-35.52.56-4.27-15.75-27.53-15.9-30.26 1.06-3.4 6.37 10 10.05 10.7 1.68-.78 2.97-2.57 4.9-2.6 3.2 2.23 6.12 7.13 8.2 11.07 2.6 3.1 9.38 17.57 10.75 17.74 3.6 1.5 8.33 10.98 7.7 14.85-2.38 8.52 15.15 19.56 15.2 23.68.3 2.93 12 16.64 3.22 15.4 5.9 11.15 12.2 11.87 13.8 27.3 2.4 15.37 14.3.98 20.18.88 21.8-.72 36.02-27 54-27.1 23.56-15.52 31.06-21.67 31.96-41.43-7.02-9.53-24.4-12.23-24.63-25 0-5.45-1.04-6.48-2.88-2.82-20.62 30.75-30.82 15.38-29.52.07-15.58-.7-12.36-6.8-18.8-14.66-11.3-12.4-.53-13.72 4.9-15.23 6.46 3.16 7.65 14.65 15.03 17.34 12.8 6.65 13.14 10.1 24.2 8.72 4.18-.5 6.42-5.83 8.74-2.73 2.97 8.73 7.03 10.73 14.15 11.56 14.04 1.9 29.73 3.08 42.63 1.17 10.1-3.8 11.87 11.24 16.7 11.5 12.23 7.82 5.73 6.64 8.03 10.54 0 1.66 12.05 13.04 13.8 13 14.67-6.14 9.55-3.84 13.1 8.65 3.12 10.2 4.83 20.73 9.35 29.98 3 5.65 6.2 11.74 7.7 17.66 2.27 9.55 11.42 17.5 11.96 27.38 0 2.27 4.7 9.52 6.98 10.73 7.8 1.02 5.62-9.62 13.28-7.37 3.7 0-2.08-1.3-.7-5.95 8.4-2.1 1.66-13.07 4.72-17.47 1.4-1.66 1.48-8.8.26-15.5-1.75-9.37-1.3-11.85 2.18-10.98 1.3-.23 9.93-7.5 9.96-8.4 2.08-6.12 9.85-9.92 13.8-15.6 2.7-4.58 7.67-5.95 11.37-9.3 3.58-3.53.16-6.7 2.8-9.87 5.34-3.5 9.17-.15 14.32-1.8 7.8-2.3 9.18-2.27 10.92-7.37 2.02 1.63 4.4 5.03 4.44 6.63-2.28 4.47 14 16.7 13.72 17.6-.38 10.4 2.46.95 6.3 9.44 2.22 6.66 1.24 10.15.78 17.15 5.65 2.32 17.44-2.07 17.64-7.87.1-2.73 5.86 9.4 6.64 13.8.5 3.62 10.8 27.95 3.85 25.32 1.27 4.45 11.04 6.12.87 6.4 3.2 3.95 3.36 9.3 2.36 13.7-.87 3.67.26 11.3 1.4 10.1 3.76-1.98 6.04 2.86 8.47 6.08 1.88 10.55 4.97 1 5.07 11.26-.6 6.04 6.94 16.08 7.16 18.82 0 1.4 1.66 3.08 6.3 6.2 2.36 6.82 12.86 6.52 12.92 10.9.82 2.63 7.17-3.28 1.05-3.63.2.02-.66-3.4-.78-4.82-6.44-8.24-3.04-15.45-5.78-23.48-.64-1.4-13.2-15.35-14.6-15.02-4.37-4.28-8.62-20.2-9.86-21.78-6.86 9.97-4.06-7.24-2.88-11.7 1.94-4.04.3-15.07 4.2-15.55 4.94.84.83 6.7 5.5 6.66 4.97 1.07 11.38 5.67 12.66 11.3 0 1.36 3.15 4.6 4.46 4.6-1.8 1.63 11.6 2 8.82 4.3-1.57.95-1.22 10.55.44 10.55 5.4-1.5 12.2-13.5 13.28-14.2 5.2-.43 7.68-5.28 12.05-6.77 4.52-5.9 1.54-12.5.87-18.1-.5-4.63-6.1-18.58-10.14-19.87-2-.63-12.32-10.46-12.32-11.74-2.5-3.82-5.9-7.17-5.93-11.05.02-5.8 12.47-18.5 17.9-16.53 1.7.73 5.85-.15 5.17 1.77-.8 2.15 2.18 8.22 4.1 8.25 4.64-2.5-1.98-7.85 5.42-9.13 3.02-3.52 15.86-1.4 14.85-8.33-1.2-4.12 4.52 6.2 4.82 1.83 2.92-3.95 12.7-3.15 14.24-7.02 1.46-3.66 13.45-9.37 11.44-13.4 2.84-1.7 7.42-16.3 7.52-18.5 2.36-11.05 7.15-14.73 4.2-24.06-5.18 5.12-2.67-2.23-5.95-8.94-2.92-4.5-7.17-5.22-9.6-9.5-3.5-6.14-7.35-10.13-11.37-12.07-3.93-1.86-4.28-2.3-3.76-4.3.37-8.43 14.2-11.14 14.24-14.52 3.44-1.65-18.35-6.8-17.12-4.1-.57 4.34-5.28 4-6.46.36-.97-6.8-11.97-3.37-12.24-9.53 2.58-4.27 9.47-3.96 13.1-11.5 2.13-5.97 9.93-2.2 7.87 2.25-.85 1.8.84 10.68.96 10.68.43 0 2.26-1.62 4.2-3.6 4.3-4.44 11.96-5.66 17.55-2.5 2.02.4 1.65 12.7 2.62 11.34 1.68-2.1 17.92 6.17 13.1 7-1.48 0-.96 1.5 1.58 4.2 3.66 4.03 4.45 5.17 3.93 5.76-2.1 3.44 1 5.74 1.04 8.54 0 1.84.35 2 3.94 1.78 4.28-.9 13.76-3.67 13.97-8.35 0-3.5-5.15-12.58-9.34-16.5-3.63-6.1-11.75-8.17-15.65-13.54-1.82-5 10.24-7.08 6.9-13.68-5.18-15.8 12.68-10.13 16.5-10.95 2.8-1.05 7.7-6.7 7.7-8.8 5.16-6.8 2.6-25.16 5.07-31.46.56-3.42-4-13.83-6.03-15.54-3.24-2.23-6.65-11.55-4.3-11.55 7.22 4.22 13.7 11.86 17.3 19.3 1.87 4.47 6.43 7.26 8.04 11.64 2.67 5.2 5.3 9.85 9.8 14.06-.5-3-1.7-6.43 1.2-5.88 1.9.14 5.47 4.24 5.6 2.74 0-1.64-2.8-5.16-4.2-5.16-8.56-5.48-9.4-7.65-12.83-15.95 1.9-4.13 11.76 3.57 11.8 2.16-2.8-2.76-6.45-4.86-9.26-7.58-1.92-1.95-6.9-6.7-11.18-10.53-6.1-5.66-21.08-23.54-24.46-22.62-1.23.46-.97.86 1.3 2.24 4.18 16.15-2.5 4.96-13.45-.7-14.06-.57-35.76.07-29.27-9.27 3.76-4.8 5.16-7.48 4.02-7.86.72-2.95 5.85-18.38 7.25-18.9 2.9-1.1 15.38-1.23 16.08-.2.26.52 1.3.94 2.27.94.96 0 1.57-.32 1.3-.68-.16-.38 2.8-.56 6.65-.44 8.38 2.2 5.6-3.46 7.5-2.92 8.7-1.05 14.07 5.8 15.22 5.8 4.42-.24 25.47-1.9 12.4-5.34-6.07-1.88-2.35-14.16 1.84-14.58 4.8-4.68 15.48 5.8 16.26 5.46 17.4 4.9 7.5-10.95 7.68-11.03 6.24-1.9 4.6 7.3 9.35 8 .33 4.26-4.7 10.24-3.76 15.74.8 3.75-2.74 8.7-5.68 8.73-1.97 3-.36 2.45 2.18 6.4-.7 3.66 3.84 9.63 13.98 18.36 6.7 7.6 1.57 2.38 15.46 13.54 4.26 3.03 11.57 14.37 14.42 8.85 2.55-5.58-5.05-10.13 2.36-13.37 1.92-2.1-6.12-4.7-4.98-8.34 5.48-8.73-8.9-15.35 2.8-12.62.78-.82-3.24-4.93-4.9-4.97-5.4-1.44-6.53-9.5-11.97-8.3-4.52 1.78-8.76-13.7-7.94-13.58 8.03-6.84 35.1 2.05 33.1-2.2-2.78-13.48 26.9-14.3 26.92-15.9-2.8-5.56-20.17-9.03-21.84-13.52 4.15-9.67-2.04-6.52-4.8-10.26 10.23.8 23.5 8.02 33.37 8.76 5.35 1.08 17.24 2.94 17.74 2.62-10.36-9.92-3.25-7.38 7.86-5.95-13.5-13.15-36.23-8.72-49.36-14.53-4.7-2.3-43.94-12.1-56.78-14.17-4.28-.7-11.2-1.42-15.3-1.6-17.4.37-17.37 2.62-38.43 1.6-7.08-.23-23.15-.3-24.46-.1-16.9-5.1-24.75-9.22-41.15-8.58-23.97.04-45.37-8.2-68.5-10.4-21-3.43-18.58 1.58-18.25 2.6 13.43 7.18 4.76 3.97-5.6 3.94.08 2.64-21.98-1.3-21.66 0 5.13 11.33-12.7.36-15.9-2.5-9.2-8-21.7-8.13-33.37-10.68-7.76-.9-6.07.52-2.62 4.45-19.97-.76-18.92-3.67-46.03-3.22-5.96-2.1-10.43-4.98-12.93-8.92-1.54-7.15-19.64-9.14-24.2-9.18-14.42-1.06-19.85-5.06-34.5-5.62zm-954.75 1.4c-7.16-.17-37.9 6-38.83 8.5 2.8-.7 25.16 6.04 26.65 7.4 3.48 4.97 13 1.26 14.54 1 5.46-.92 13.66-1.88 18.24-2.13 11.3.27 26.78-7.5 7.56-6.6 3.32-4.38-.6-4.56-3.9-3.58-7.64 2.05-3.48 5.88-9.2 6-6.5.1-6.4-4.08-12.9-4.83-8.85.28-1.22-3.3.45-3.67 5.22-1.6-1-2.1-2.63-2.08zm793.93 4.4c-6.2 3.27-24.43.5-28.13 4.45-1.66 2.47-10.73 2.75-10.4 5.08-3.42 9.35-6.4 9.9-11.44 18.9 2.02 5.65 30.27 11.65 32.15 7.66-.6 1.6-19.67-6.03-12.93-12.3 3.7-2.54 6.47-10.32 11.27-11.37 7.4-4.47 13.76-5.82 19.74-7.02 15.3-3 18.35-4.96 11-6.93-3.8-.88-8.16-.37-11.26 1.53zm321.3 5.24c0 2.46 3.05 3.95 13.1 6.27 7.1.57 24.72-.1 25.85-3.74-4.96-4.7-11-2.54-19.04-4.2-4.86.25-19.82-2.25-19.9 1.66zM507.25 52.9c-5.73 3.13-17.63 6.08-21.8 10.57 35.02 5.72 34.33 9.58-6.45 14.4 5.87-5.98-27.72 4.14-24.84-3.72-8.1-8.15-50.8 13.1-50.8 4.73-9.2-9.43-57.38.44-62.1-10.1-24.16.17-61.97 2.66-82.55 18.64 12.34 12.26-9.72 10.3-10.9 10.56-2.97 1.07-28.02 4.82-22.9 6.97 3.22 12.04 11.32 7.2 21.5 7.37-.77 3.77-19.84 7.73-22.42 7.32-8.34 1.02-17.68 7.77-24.92 9.6-20.7 19.76 15.78 12.84-5.63 21.52-4.14 3.83 14-2.18 13.38 1.4 26.74-7.53-15.73 12.8-30.13 17.87-23.07 2.98-29.08 4.47-34.32 11.5 4.23 1.23 27.42-8.53 28.75-4.56 11.5-2.07 23.3-10.4 34.3-12.67 1.88-2.8 46.76-21.97 46.32-16.96 5.38-1.66 27.02-3 31.86-5.32 9.8 1.22 11.5.84 21.08.22 12.9-1.05 23.82 12.47 18.37 19.8 3.5 7.48-5.1 16.6 2.7 17.3 2.72-.03 8.25 15.4 5.66 19.85 3.6 10.25-7.46 9.8-7.44 10.3-5.68.74 13.6 16.38 10.35 16.15-2.65-.2-3 .25-5.18 7.04-1.45 4.5-6.46 13.8-8.65 16.07-10.66 9.1-14.15 23.37-21.52 32.43-2.25 2.43-4.32 14.5-3.6 16.1 1.26 11.32 2.78 18.44 3.06 29.06 16.3 9.22 13.26 15.96 16.2 30.14-.55 6.3 3.33 10.54 6.17 14.88.87.42-1.95 9.96 1.9 16.47 9.93 4.53 5.4 8.34 4.2 14.57 5.66 4.3 9.5 12.76 12.43 14.44 8.42-3.05.62-8.48-1.42-17.1-.38-4.02-3.86-17.28-6.87-19.1.33-14.2-.3-7.55-5.62-15.83-2.28-3.8-.46-15 2.98-13.54 7.58 1.96 5.62 5.17 6.36 10.88 1.46 13.36-3.45 5.83 4.12 13.8 5.03 7.97 9.3 14.74 8.1 18.6 9.2 11.83 19.3 18.95 19.3 34 .2 6.23-4 8.18-.73 13.35 7 7.67 29.16 21.5 36.03 22.47 14.57 8.54 16.7 4.85 28.44 3.5 3.55 0 7.93 2.8 11.2 7.2 5.44 7.28 8.08 9.35 12.88 10.12 14.76 3.5 29.77 14.5 30.64 25.26 5.3 2.08 13.9 15.9 14.5 15.94 9.3 2.07 16.17 10.95 20.3 9 1.96-10.67 7.87-12.7 15.88-1 5.52 9.17 3.5 32.23-2.78 35.7-5.77 3.3-3.72 9.8-8.7 11.7-7.2.13-7.7 23.75-9.46 24.13 1.36 7.7.98 7.3.9 12.43-6.54 2.4-1.04 18.18 2.33 19.92 7.03 5.07 11.76 14.7 15.34 22.67 1.4 4.45 17.3 31.14 17.18 31.94 3.86 21.15 37.8 23.6 43.74 40.4 1.4 12.82 6.32 63.23 3.8 73.07 3.45 20.96 7.14 32.95 4.8 55.97-3.1 13.2 4 30.84 6.9 45.17 2.98 12.8 5.23 26.12 4.53 35.13 12.57 27.05 29.46 43.93 38.77 52.6 10.48 3.46 14.88 10.6 29.32 10.65 9.38 4.1 12.53-1.96 14.85-3.32 11.96-3.95-6.36-2.92-17.45-13.54-3.3-6.2-13.17-11.77-13.62-18.7 8.36-6.77 1.22-9.58 8.52-16.07 8.48-9.38-10.35-11.16-12.84-15.38 12.58-8.55.2-20.94 12.7-25.42-3.93-13.5-10.72-1.5-11.7-14.68 13.52 6.4 21.13-2.25 14.14-11.7-3.9-4.52 21.48 2.5 25.88-10.14 2.56-8.5-1.33-20.13-8.9-24.46-2.34-.63-4.66-6-1.83-3.45 17.75 3.22 24.57 11.13 29.86-4.6 2.93-9.5 12.98-18.36 14.93-26.6 1.02-4.6 3.68-9.62 5.72-10.77 4.67-4.6-1.04-25.07 1.18-25.3 13-9.2 18.57-17.27 34.42-17.8 3.83.44 11.17-8.12 10.76-9.75 2.4-2.18 7.8-28.03 7.84-28.07 4.8-5.1-1.2-37.8 4.37-38.08 4.14-10.32 17.04-21.7 21.3-31.8 2.38-10.46.94-17.97-2.96-27.4-10.2-1.95-13.44-3.85-18.43-8.65-18.08-9.04-33.04-11.04-45.86-21.26-6.88 1.64-18.23-6-26-8.16-7.27-4.02-13.95-18.32-14.2-28.32-.44-6.23-20.98-20.82-32.3-17.72-12.94.97-13.85-8.27-18.25-13.68-3.15-4.34-15.25-6.65-13.47-9.25-4.9-4.95 1.77-15.3-1.23-14.2-13.55 3-14.64-.85-24.22 4.8-1.7-3.75-23.1-1.36-23.23-4.7-6.22-7.32-9.76-12.68-11.82-10.4-3.2 10.94-10.62 13.53-7.67-1.02-3.94-.06-18.5 10.56-22.83 9.56-3.54-.9-8.37 6.23-7.58 11.2-1.64 2.78-9.43 6.08-8.85 9.2-7.44-4.54-12.47-11.35-21.76-6.53-12.35 6.4-15.84-1.4-21.8-13.04.25-5.57 4.2-26.35 6.2-29.57-.08-5.65-15.13-10.47-18.94-8.17-5.14 1.94-13.2-.16-17.06.32-.84-15.08 19.87-30.4 18.18-41.1-2-3.65-21.83-.93-24 3.56-9.32 24.23-23.87 18.68-35.7 15.83-4.1-2.14-11.08-21.05-10.2-27.25 4.93-19.33 10.8-39.78 23.44-47.4 6.76-4.72 22.77-10.56 29.35-4.88 27 3.42 17.6-14.78 36.48-6.15 13.08 12.54 16.06-5.38 16.43 14.23-.7 1.34-1.16 3.38-1.02 4.52 1.34 8.97 4.7 16.1 10.26 20.1 11.24-.95 5.28-28.87 4.6-31.67-3.05-11.47 4.63-21.7 13.18-26.1 4.05-3.07 19.63-14.56 24.35-14.82 13.05-12.07 20.7-22.17 19.5-31.2-.26-1.55-.1-3.05.35-3.33.45-.28.82.1.82.85 0 1.93.55 1.76 4.7-1.64 2.02-1.66 4.2-4.38 4.85-6.03 1.05-2.7 1.67-3.1 6.08-4.02 6.08-1.24 11-3.32 8.38-3.55 16.15-.62 10.72-9.55 11.44-10.15 3.5-6.02 8.9-9.37 14.33-11.25 9.6.1 19.1-12.16 28.4-10.05-3.33 4.54-16.1 6.87-10.5 12.78 13.06 1.98 18.1-9.52 32.67-11.43 3.52-3.82 10.1-4.72 10.6-7.2-4.96-1.87.43-4.48-1.54-6.5-14.64 8.48-19.92 4.6-26.13-.25 4-6.44 11-16.6 2.05-16.5-8.4 2.83-4.9.56-7.64-2.3 6.9-6.55 18.86-4.35 25.58-4.33 23.8 3.04 25.9-8.67 36.86-8.82 4.86-.65.67 1.97-1.23 3.82-17.17 18.5-26.2 23.7-10.92 24.62 22.26.9 20.54.7 19.16 2.2-1.02 13.47 10.76-1.54 9.22-5.74-4.03.53-5.98-5.3-1.3-7.76 1.7-2.47-1.08-3.08-.96-5.05-8.28 4.05-7.58-2.32-13.03-3.46 6.55-5.92 5.4-2.63 8.1-7.75-7.54-2.1 1.6-4.14 3.4-10.62.67-10.2-6.5-17.3-17.62-18.8 0-14.25-6.1-19.96-4.4-37.85.3 2.18-8.53 7.3-9.56 8.27-2.96 2.7-12.5 9.98-15.97 7.3-6.85-4.75-4.82-11.88.5-16.8-8.2-3.63-8.5-3.42-15.47-11.22-8.47 1-24.58-3.97-25.77 5.05-16.37 18.17-12.96 14.63-11.87 28.53 0 2.17-3.26 8.97-5.08 10.6-7.3 5.23-15.2 8.03-23.8 9.53 3.4 10.33-14.5 32.54-15.68 23.4-12-2.98 9.36-20.3 3.6-25.72-14.36 2.5-20.4-9.22-29.95-12.25-5.63-2.86-9.26-2.46-14.85-1.33-.65 0 .34-4.55 1.78-8.16-.7-3.73-8.57-2.06 2.56-15.43.33 0 2.94-1.77 5.8-3.9 10.9-7.47 24.62-11.4 35.2-18.05 7.04-4.37 12.42 1.24 17.2 1.12 8.97 4.2 1.76 2.37 13.14-.14 8.94-6.77 7.76 3.1 17.42-.08.84-12.02 12.65-29.8 19.35-32.24 1.9-7.98 17.43-7.44 10.43 2.42 15.72-2.58 3.42 1.84 5.25 5.46 18.57-2.3 20.8-.35 13.1 4.76 3.44 8.1-35.26 8.24-31.07 13.95 15.2.36 25.68-3.93 26.02 7.48 3.72 5.95 31.86 14.6 31.07 10.46-5.2 1.15-8.3-8.7-1.66-7.5 6.43 4.3 5.3 1.58 10.5-3.44-11.9-13.65-2.5-16.1 7.56-10.84 7.8-2.18 14.82-6.3 21.13-11.12-5.32-4.94-18.95-8.36-23.82-13.23 20.52-15.02-26.03-19.73-20.1-26.65 0-2.5-3.08-3.84-10.04-4.34-10 .47-16.07.6-27.52-.74-5.97-2.33-22.76 2.86-29.92 9.26-11.18 8.4-7.44 16.17-.17 13.5-21.57 30.62-21.4-3.77-22.16-10.44 3.95-4.26 30.74-11.8 29.46-13.14-3.82-1.26-7.7-.75-11.72-1.28-2.44-.34-12.95 2.24-14.67 3.74-5.87 2.76-5.56 8.53-10.87 10.7-5.06 1.4-10.14 7.27-12.9 8.8-12.17 4.92-19.14 8.93-24.23 14.13-1.83 1.9-2.7 2.08-11.82 2.22-13.74-.5-17.06-3.63-2.23-4.93 3.04-3.38 14.63-5.47 15.13-9.12-.02-.9-3.7-2.9-8.06-4.4-4.4-3.3 13.8-16.04 15.07-17.2-1.34-1.88-20.88 2.55-22.02 3.72-8.6 11.1-2.5 4.07-5.54.63-7.64-2.15-18.44 2.53-23.1-5.6-8.13-8.36-29.35-5.35-38.88.4zm104.92-.04c-.55 7.7-6.7 1.8-11.95 4.47-2.68 4.88 5.73 4.4 5.67 8.55 5.44 3.7 14.68.4 20.18-4.8 3.56-3.14 6.4-6.9 5.68-10.74-12.04 1.67-13.7.6-19.58 2.52zm359.85 48.76c-4.28 4.48-6.56 0-10.48-2.27-5.15-3.37-9.28 1.7-13.2 4.7-.47 2.12 17 1.7 4.63 3.6-4.1.57-5.15 1.06-4.54 2.05 8.02.76 13.04-1.1 4.8 5.57 0 .88 1.06 1.14 4.2.95 7.84.83 14.43 3.93 21.84 1.45 5.1-1.98 23.25-6.38 23.76-11.4-7.2-3.23-3.36-8.08-6.3-7.57-6.1-2.57-24.04 4.36-24.7 2.92zm224 2.5c5.83 1.67-3.8 6.72-7.72 11.4-5.57 6.74-6.37 11.17-6.68 19.18-.26 6.5 4.38 5.23 8.56 8.27.17.58 2.62.3 6.72-.8 5.88-.25 11.2-2.73 16.25-3.13 9.84 0 8.36 1.3 4.8 5.44 0 1.1-4.36 1.06-13.1-.08-11.62 1.16-7.02 8.5-14.15 3.8-2.6.36-5.1 4.1-4.63 5.84.15 6.13-3.6-.34-3.67 15.97.53 4.45-.96 6.97-4.02 6.97-.37 1.98-6.9 7.48-8.03 2.65 1.57-2.57-10.84-1.38-13.1 1.25-3.6 2.05-14.27 4.4-14.42 0-4.17-3.62-14.8 5.37-14.86 2.27 6.96-7.08 7.48-1.8 7.26-9.1 3.2-4.74 1.65.73 6.72.74 3.23 0 3.93-.3 4.2-1.72 6.93-4.24 10.2-5.68 11.8-4.85 1.04-1.07 3.14-7.3 2.7-7.75-3.86 5.05-1.84-2.3-1.3-8.05 4.04-2.47 17.82-8.5 6.63-13.7-8.58-4.7-4.6-4.63-4.55-10.73 1.43-4.33 7.96-10.13 12.93-10.4 5.67-3.58 8.07-10.62 10.4-13.06 3.52-1.44 7.77-1.04 11.27-.38zm-146.2 44.45c-2.6 5.04-8.23 1.17-10.76 4.78-2.3 5.24-6.05 3.9-7.77 5.3.18 3.08-2.05 5.04-2.97 7.94 8.86 1.18 4.85 1.08 1.74 5.05 3.94.58 7.05 7.8 8.57 8.27 7.94-2.92 5.5.12 7.86 2.75 2.75 4.7-.37 6.53-4.37 6.04-5.02.14-.47.37-5.5 5.03 12.3 1.06-10.15 7.4 2.1 8.22 4.2.2 7.33 2.1 3.5 2.1-3.4 1.88-9.57 5.9-11.72 8.8 2.43.4 13-1.73 13.82-2.68 3.96-1.26 12.75-2.47 17.38-2.24 3.93.2 11.18-2.26 11.18-3.83-6.66-3.94 4.23-5.4 1.84-10.4-9.7-6.87-6.18 2.82-9.17-9.3-1.53-3.7-6.2-4.46-7.26-8.1-.8-3.35-3.06-6.26-4.8-6.3-2.26-2.1 1.53-7.38 3.3-9.12 2.1-2.16.62-3.13-4.88-3.13-1.6-.2-6.76.08-5.25-1.75 11.56-4.6 7.3-14.48 3.15-7.43zm-31.54 28.83c-.2 7.05-8.42 2.68-10.14 5.68.16 3.1-.88 5.9 1.3 6.48 6.1 2.06-9.4 10.66-3.84 11 1.74 3.7 9.25 1.77 13.72-.55 4.38-2.04 9.4-1.75 10.48-5.45.34-7.58 6.13-14.43 3.67-17.48-4.5-2.77-12.05-3.53-15.2.33zm-457.27 60.3c-3.3 1.26-4.84-2.3-10.75.53-5.8-9.87-17.83-1.35-29.54-2.32 13.7-10.97 15.15-8.36 28.1-12.25 14.78-3.33 13.22 4.17 12.2 14.04zm822.48 45.25c1.53 8 8.7 12.4 9.8 18.95 2.5 10.55.47 8.77-9 10.92-5.8-.2-20.24-7.86-21.14-13.08 1.82-10.14.23-8.82 6.73-14.08-4.17-4.1-9.07-7.73-12.68-11.58-7.17-7.78-8.3-9.44-8.3-12.04 0-2.87-2.53-6.43-5.5-7.65 5.93-12 25.23-17.03 29-17.56 5.37-1.97 8.34 12.46 5.33 11.33-4.94-1-11.1-2.24-10.92 3.98-1.46 1.62-5.2.24-3.93 2.57 2.26 2.56 7.82 5.14 7.86 8.8 13.05 8 8.57 5.13 9.35 12.17 4.08 2.5 2.84-1.28 5.72-2.25 3.6-.03 8.06 6.8 8.48 7.92-5.96 3.53-2.9.48-6.12.43-3.88-.47-3.5-.84-4.67 1.15zm-84.55-23.42c2.62 2.16 6.55 4.78 8.82 5.82 2.88 1.33 4.54 2.77 5.6 5.04 1.9 3.78 1.4 5.3-2.1 7.37-1.93 1.12-4.9 1.65-10.93 1.85-5.04.5-22.85-4.07-24.72-6.33-1.3-1.6-2-1.67-8.47-1.08-5.33.5-8.13 1.26-11.2 3.03-5.34 4.66-15 4.7-21.4 1.37-2.26-1.2-5.5-8.03-4.45-9.15 2.24-3.77 5.76-14.47 7.17-15.18 3.96-2.25 4.57-13.22 9.87-13.3 1.3 0 2.18.5 2.18 1.28 3.42 3.3 8.96 1.47 11.7 3.16-1.43.84-6.07 4.12-5.06 4.4 8.47 1.4 5.53 6.38 8.56 6.74 4.3-.7 8-4.2 12.4-4.23 5.5-.86-.4-2.62-2.1-3.3-1.8-.3-3.5-2.87-4.44-3.85 2-2.14 4.45-4.95 7.34-5.37 3.9-.75 7.78-2.25 11.44-2.77l4.28-.6c-1.78 1.9-6.74 2.4-7.42 3.93 1.94 2.93 2.15 2.66.52 6.35-.6 2.2 1.27 2-3 2.9 2.75.74 10.88 8.24 15.4 11.88zm-743.53-16.87c-10.04 6.2-14.42 21.32-21.03 28.33-4.25 4.23-6.62 4.9-6.77 1.85 2.78-14.76 12.18-29.57 27.8-30.2zm23.45.7c1.22 0 2.3.92 2.95 2.73 2.1 6.03-1.8 9.44-4.87 4.25-5.57-3.14-7.7 10.17-11.27 12.62-3.56-3.58 5.56-14.15-9.53-3 7.23-10 8.72-7.04 3.9-15.54 8.1-1.07 14.9-.9 18.82-1.07zm564.08 2.5c2.8 14.02 24.8 19.97 36.43 28.52-1.42 5.4 2.62 17.8 4.02 17.9 3.96.97 3.57 5.06 2.62 7.3-.02 7.75 6.08 2.43 7.86 9.88 6.02 2.06 7.75 1.52 9.18 7.3 4.47-8.45-1.72-9.28 2-8.75-.32-2.67 5.76-6.36 9.35-1.57 4.8-4.3-18.75-14.86-14.66-21.3 2.52.6 8.98 5.48 9.52-.2-4.58-6.46 14.94-3.12 11.7.15-4.9 4.08-3.16 8.23-.26 9.5 10 .28-6.1 9.72 5.94 10.8 5.14 1.68.5 5.85.8 7.8 6.98-1.84 4.6 3.2 5.4 4.44 4.2 1.76 1.26-5.74 4.64-4.9 4.07 2.66 13.55 6.7 12.84-.12-.35-2.56 6.73-.3 10.74 3.42 2.63 2.4 9.88 1.5 12.15-1.53 1.84-2.36 3.33-2.62 5.86-1.05 5.65-.63 2.2-.84 4.28 8.2 1.05 1.15 1.75 7 1.05 7.87-1.15 1.27-4.3 10.94-5.34 16.17-.64 7.93-10.75 10.4-15.1 7.04-3.25-2.84-12.86-1.82-16.7 1.77-8.1 3.9-17.3-5.34-26.12-3.92-6.15-3.7-13.96-4.93-20.27-9.37-1.3-2.08-9.6-.14-13.54 3.17.88 10.2 5.55 19.47-11.88 13.6-3.58-2.55-9.1-4.53-12.76-4.53-11.83-12.8-17.46-8.3-29.36-14-10.3 1.12-16.2-10.97-4.98-11.63 2.02.17-1.16-8.34-1.22-8.38 3.8-9.96-2.75-7.5-3.24-9.4-.7-2.74-4.28-3.26-8.2-1.2-6.92-3.47-20.03 5.7-24.47 2.88-2.36-1.45-4.8-1.34-16.6.63-9.87 1.65-15.73 3.7-15.73 5.46 0 .5-.6.67-1.3.4-5.45-.18-10.3 9.57-16.43 4.74-4.26-.87-9.54 1.5-12.84-.84-7.03-7.16 4.66-9.63 10.04-9.7 8.16 2.86 8.7-4.76 13.63-5.84 1.62-.9 10.16-9.6 8.48-11.02-5.5-4.52 6.8-16.05 8.82-16.36 9.76-4.03 10.67-6.08 10.57-12.77 0-4.28 9.26-5.82 14.6-2.43 6.27 2.88 13.5-5.3 18.95-8.67 13.93-.6 8.86 10.1 9.35 12.12 6.14-2.2 11.44 10.4 19.4 11.3 5.15 2 14.42 9.43 15.9 13.54 3.22 8.55-9.12 9.73-14.77 9.3-5.16-.45-6.64.02-6.64 2.1 2.62 1.6 11.55 8.15 14.67 8.94 6.07.22.5-10.9 5.5-9.36 4.24-.76 11.5-10 7.35-12.72-3.36-3.34 2.87-6.4 7.25-2.02 1.3 1.3 1.48 1.25 2.27-.47-2.06-9.92-13.58-8.26-14.07-15-12.1 1.22-12.93-10.53-19.65-14.67-4.3-2.85-4.62-10.96-1.3-12.2.84-.68 6.02-1.46 4.27-.3zm765.22.13c-7.5 5.4 7.66 4.92 5.5 13.47-.13 9.26-8.5 3.45-4 12.1.5-1.66 4.27 1.17 4.88 3.73 2.74 4.8 7.8-1.53 3.14-3.65-2.53-1.06 5.58-2.3 8.12-1.26 14.56 6.38.4-4.06 10.48-4.35 2.97-.02 5.86-1.7 5.86-3.33-4.04-2.25-3.1-5.62 0-7.8-2.24-2.77-3.77-.04-4.02 1.6-1.15.53-6.76.9-11.1-.65-7.3-.06-12.12-9.18-18.87-9.88zM600.24 257.33c3.1 0 1.88 2.46-2.1 4.2-3.6-.06-23.94 3.22-14.7-1.3 4.87-.86 13.3-2.86 16.8-2.9zm518.42 7.38c-1.5 1.98-4.68 2.5-5.76 4.7-.83 4.96 4.84 8.05 1.57 10.23-2.08 1.8-6.97-1.36-3.5 4.34 2.07 3.48-1.84 9.2 1.05 11.56 3.15 2.12 3.15-1.22 5.68-1.28 1.75.68 2.27-.9 2.53-8.4.18-5 0-6.16-1.4-7.16-2.3-3.2.33-6.7.36-10.82 0-2.3-.2-3.2-.54-3.18zm-537.03 1.44c-4.6 3.23-21.64 12.36-27.03 9.48-1.3-1.43 4.2-2.9 8.5-5.1 9.38-2.8 10-2.6 17.05-4.1.77-.18 1.25-.28 1.48-.28zm1336.85 16.1c-.4 7.85 8.82 14.15 4.8 20.5-7.56 13.65-8.7 2.27-11 3.84-3.02 3.9 6 3.72-.88 8.4-1.95 2.03 1.2 3.67.18 5.2-2.58.8-5.12-.62-7.78.02-2.15 1.1-11.35.07-11.44 2-4.45 4.36-6.16 7.6-8.9 11.98-3.33 2.63-5.42 4.1-2.8 6.93 4.15 2.78 6.1 5.68 7.77 11.44 1.67 2.2 4.3 3.45 5.94 1.75 2.85-5 1.94-8.5 1.4-14.47-.5-4.47 9.58 7.13 7.6 1.75-.03-9.8 7.64 1.75 6.8-8.66.4-4.7 4.4 3.47 7 4.04 3.7-4.27 4.23-6.17 9.7-8.44 6.5.58 2.38-7.4 5.33-1.94 5.12 5.42.82-6.6 5.94-1.5 4.14 2.77 4.56-5.84 3.14-7.48-3.1-4.32-1.2-9.38-4.37-13.1-3.17-3.75-.43-3.17 1.76-4.32-.77-11-10.24-15.1-13.1-22.5-6.37-5.68-6.25 2.84-7.08 4.57zm-642.73 37.36c-4.04.64-8.23 3.74-12.5 4.12-2.44 0-1.83 2.7.97 4.12 4.4 1.94 4.85-.9 8.65-2.37.43-1.98 3.05-4.96 2.88-5.88zm-69.2 2.32c.22 3.72 19.86 5.43 17.92 1.8-4.45-.96-17.47-5.28-17.9-1.8zM1840.8 405c-3.68 11.3 1.05 11.22 3.58 18.23 2 2.7 2.63-4.3 3.06-5.47.7-1.98 1.4-6.67 1.57-10.42 1.16-11.6-5.27-10.2-8.22-2.35zm-1318.1 9.2c-1.55.02-2.94.15-4.02.45-1.44.4-4.45 1.2-6.72 1.75-5.1 1.07-13.25 8-9.1 8.87 15.26-3.97 13.98-2.33 25-1.94 10.15 2.8 17.9 8.52 18.86 15.4-.56 1.47 17.86 1.08 21.7-.47l2.6-1.03c-3.53-1.85-11.42-7.67-13.3-8.24-3.7-1.12-8.9-5.53-8.9-7.55 0-.56-.24-.8-.54-.5-6.72.86-15.25-6.6-25.6-6.74zm1253.6 24.42c-6.4-.84-8.54 10.02-4.12 12.53 9.36 3.3 9.13-4.18 12.32-9.7 1.48-5.32-5.36-3.07-8.2-2.83zm-1199.92.27c-3.13 1.4-3.32 2.78-.4 2.78 8.9 13.18-7.74 4.38-9.73 7.94 2.13 7.95 14.53 1.6 17.7 5.44l1.8 2.43c5-7.9 10.43-6.74 18.78-4.46 5.02-6.4-5.53-9.22-6.76-10.82-2.58-2.16-18.6-4.56-21.38-3.33zm1272.18 12.83c-1.26 2.5 2.26 18.18-.08 15.07-2.8-3.46-3.15-.6-.88 6.44 2.45 4.4 1.97 7.8 3.15 11.25-.1 3.03 3.4 5.77 5.24 9.33 1.92 3.68 3.23 4.38 4.63 2.45 1.5-1.94.8-5.62-1.4-7.53 4.73-4.5 13.07 6.77 13.1 8.27 0 2.4.27 3.24.8 2.43 2.55-1.74 7.23 3.72 4.8-1.1-1.57-2.7.2-3.82.7-6.16-1.58-3.44-.85-2.68.52-5 .96-.56 1.05-1.16.26-2.6-1.22-2.16-2.7-2.45-2.7-.52-2.58 2.22-8.3-3.1-11.7-2.7-5.12.32-3.35-2.85.34-2.8 0-.86-3.06-2.77-4.55-2.8-3-.96-2.4-6.94.18-7.02 5-5.54-.1-10.56-.18-15.83.5-3.46-10.6-6.4-12.23-1.2zm-1306.07 1.9c5.42 4.54 5.63 1.2 9.83 1.16 6.3-4.93-18.47-7.3-9.83-1.16zm71.1-1.33c1.1 3.73 15.1 2.46 11.14-1.04-2.67-1.95-10.68-2.64-11.13 1.04zm1265.72 43.6c7.85 15.32-.56 10.17 9.34 20.3 1.45 5.96-.53 5.36-4.1 3.23-.76 3-2.3 9.23-5.25 5.93-2.42-2.44-4.77-1.04-6.13 1.47-4.53 3.16-6.87 4.46-6.3 9.9 4.47-.27 6.96-1.48 7.6-2.42 3.2.26 3-3.6 4.73-2.66 3.26 3.65.53 9.05 4.02 11.92 3.76 1.54 8.6 7.43 8.82 4.63 1.96-5.17-1.5-10.4.53-10.9 2.26.36 1.7 2.83 2.88 4.47 5.05 1.23.75-20.13-1.48-22.67-.53.3-.62-.84-.18-2.78-4.53-6.47-5.5-5.36-5.78-17.08 1.94-4.75-8.68-6.7-8.73-3.34zm-15.12 3.77c-.26 1.98 1.02 5.02.88 7.46 9.1 5.6 1.2 5.82 3.93 10.56.97 1.56 2.76 1.77 3.66 3.05 1.67-5.02 5.93-2.26 9.6-3.58 1.1-6.57-2.85-12-8.12-10.84-2.67-.82.05-4.34-2.62-4.37-2.76-.12-4.77-1.84-7.34-2.3zm-14.6 3.4c-3.24 1.72-2.38 5.68-4.53 8.72-.37 5.7-6.6 6.73-9.35 11.86-1.3 1.43-.48 5.82.88 3.47 4.14-3.06 9.55-14.5 14.24-15.66 2.36-.46 2.7-2.2.52-2.76-2.7-1.84-1.22-4 0-4.9 0-.45.6 1.06-1.75-.72zm-262.2 12.24c-3 4.2-.4 4.44-2.53 5.8 2.5 3.8.74 9.6 1.4 13.62 1.12 6.16 1.96 12.7 8.65 9.4 4.54-2.3 5.68-3.76 5.68-7.48 0-3.56-3.5-11.9-5.77-13.8-3.6-3.36-3.7-7.06-7.4-7.53zm242.8 25.98c-5.9 10.32-11.58 11.9-19.05 20.96-12.9 2.5-17.32 18.78-23.24 12.75-.7-1.95-3.24-.4-4.9 3.05-1.5 2.9-1.4 6.1 0 13.63 5.8 12.54 4.68 3.42 6.72 17.03 19.88 2.4 6.44 11.06 29.27 10.4.05-.05 12.06-.2 12.13-.4 1.8-6.74.84-15.45 5.07-19.55 8.5-4.53.83-15.63 9.26-15.23 6.23-1.28-13.35-23.24-.8-26.53 7.25-9.3-5.13-12.96-4.88-14.95-2.82-13.05-5.1-6.3-9.6-1.17zm-140.05 9.5c6.63 10.88 15.88 17.18 23.85 26.94-.44 1.82 2.97 10.67 4.37 11.14 2.44.84 8.9 12.43 9.43 16.82 3.8 8.1 10.96 15.46 16.86 21.32 7.7 7.6 7.87 7.7 10.57 6.74 10.94-1.5.46 6.2.36 6.72 1.65 2.65 7.83.5 7.95 4.32 6.52 5 18.9 2.8 25 5.73 3 2.4 18.87 2.43 20 3.45 5.35.77 14.1 1.67 14.86 1.55 3.6 1.82 7.3 3.3 11.1 3.28 9.02-5.7 26.68-.66 35.2-2.8 4.5-2.88 14.92-.5 18.17-3.24 1.3-1.34-.96-1.6-9-1.1-9.5 2.24-24.44.4-29.18 1.87-.02-2.85-5.63-.66-7.68-2.42-11.26 5.34-23.16-1.38-30.84-3.55-12.48-1.6 4.38-3.77 4.2-5.16-.27-.56-2.8-.83-6.56-.7-20.62-5.45-16.24.1-20.18-.3-8.58 2.66-13.3-8-20.98-6.8-9.94 3.97-6.25-6.67-5.85-12.05.43-8.92 1.05-10.68 3.14-9.55 10.17 1.35-.27-4.97-1.3-9.88-6.37-2.3-6.63.45-3.14 3.7-4.6 1.94-9.97-8.2-13.55-10.84-3.1-2.6 3.18-6.34.1-9.2-.57-4.8-4.82-3.57-7.5-7.56-1.6-.08-6.4-5.42-6.56-5.46-7.92-2.47-14.48-8.93-19.5-13.87-4.58-3.64-5.8-10.02-12.3-10.05-4.57.2-12.84-7.7-11 .96zm199.7 25.6c-8.03 6.1-12.04 9.32-23.66 4.2-3.87-3.6-4.6 1.44-7 2.17-7.34 1.28-6.57 25.98-11.44 26.67-2.76 9.5 3.98 5.2 4.28 10.4.54 4.15-1.53 8.06-1.2 12.07 3.06 2.38 7.12-.1 7.24-3.04.18-13.66.7-17.7 2.27-18.2 2.37-.75 2.9.23 1.67 3.32 8.3 11.4 6.56 14.52 9.53 17.8 4.5 3.1 5.53-5.5 5.6-8.96-2.36-2.57-10.35-17.67-9.1-19.16 2.06-1.76 11.26-6.75 11.27-7.35 0-2.34-2.18-3.12-4.9-1.7-6.3 2.3-14.85 12.08-17.46-3.82.88-4.43 1.67-4.67 12.76-3.9 8.47-.1 24.9 1.03 21.32-9.24-.35-.9-.6-1.35-1.14-1.25zm50.16 15.57c-6.33 5.83-12.67 3.05-14.43 4 2.34 4.8 14.42 11.4 17.74 11.18 7.65 5.55-7.73 3.22-8.12 4.14-.9 2.55 13.3 13.95 10.75 9.65-1.74-3.28 2.83-1.9 3.67-1.5 1.75.83 3.93 2.13 4.8 2.9.88.74 2.8 1.46 4.2 1.62 30.46 6.02 26.04 17.2 12.4 28.97 0 1.28 7.87 1.23 8.83-.04 9.85-4.33 8.86 7.06 17.9 7 12.38.13 6.05.02 8.04 4.6 1.98-4 9.2-19.6 13.63-15.92 3.24 1.48 10.1 3.72 10.14 7.95 4.8 14.7 26.98 12.1 27.78 11.6-9.28-5.5-13.1-14.15-19.22-20.32-8.9-9.67 2.52-5.82 2.8-8.52-1.08-4.4-5.07-4.24-7.7-6.5-7.9-2.56-2.65-10.47-4.97-8.46-3.52-6.95-37.37-15.75-46.74-20.7-9.5-6.9-9.5 2.25-14.34 2.32-4.52.18-4.86 8.6-9.8 8.74-1.54.4-9.6-7.4-5.5-9.6 2.03-6.87-6.03-11.82-11.87-13.1zm62.33 78.62c-5.72 2.1-10.32 22.14-10.83 27.17-.58 4.6-5.24 25-12.32 25.25-12.12-9.52-20.07-13.5-28.13-21.22 9.07-8.6 6.93-8.4 10.92-15.45-11.77-13.76-26.54-8.2-38.18-4.35-7.2 4-12.12 19.33-15.38 19.53-13.86-8.86-21-8.35-26.2 1.2-19.32 8.03-12.85 8.23-29.46 31.98-11.02 10.03-40.75 8.25-48.75 22.24-3.67-5.8-4.76 6.78-8.2 12.18-4.15 28.78-5.3 1.7-2.62 30.23 1.5 9.1 2.95 43.75-5.76 44.22-11.27 7.5 16.84 15.5 17.56 9.6 11.1-6.43 22.67-6.82 34.77-6.2 12-12.77 32.25-16.67 48.05-17.9 9.87-4.54 25 13.4 23.5 20.97-2.87 5.9 18.34 4.74 21.23 11.97.92 5.37-4.53 13.44 7.07 18 10.05 4.18 20.5-2.02 24.38 5.3 6.07-5.72 30.83-8.35 31.45-15.27 8.28-10.68 18.54-26.7 29.97-33 3.07-2.47 10.94-10.84 11.1-13.76 7.13-19.12 16.03-33.76 16.5-45.78-.08-1.25-.17-1.33-.52-.34-3.6 6.16-12.52-10.44-11.97-14.52-10.48-7.82-3-24.6-17.64-26.84-9.86-1.37-2.44-14.45-6.03-19.77-3.2-15.08-9.93-20.63-9.87-21.87-2.03-15.5-.67-11.9-3.93-23.3-.17-.16-.44-.27-.7-.3zm-620.28 9.56c-4.05 10.02-11.27 16.2-13.9 21.32-3.58 4-13.32 10.14-18.08 10.18-3.2.95-1.97 4.55-3.67 7.3-3.5 14.43 4.97 17.8-4.72 31.22-3.88 3.7-2.92 31 4.8 31.38 4.36 3.18 8.38-.67 12.15-.88 7.1-1.54 9.53-17.62 12.23-23.7 2.84-11.03 9.02-20.64 10.84-31.9.87-17.48 16-19.27.6-44.8-.08-.14-.17-.17-.25-.12zm767 169.54c-.86 0-1.65.44-1.65.96 1.28 3.8.4 20.88-1.05 23.76-4.08 7.9-9.1 8.58-14.85 13.1 3.5 2.42 9.22 9.06.87 10.22-5.3 1.53-5.1-8.44-19.04 2.1-8.05 7.6-19.95 14.32-27.52 17.56-10.95 4.3-22.24 10.43-31.18 16.42-3.4 2.1-3.32 4.98.17 4.98 7.13 1.6 3.02 6.63 17.3.1 6.5-2.9 11.8-7.63 15.8-11.37 3.76-3.4 7.78-5.32 13.2-6.1 5.4-5.67 16.2-10.52 22.8-17.48 7.08-3.37 6.36 2.9 15.03-4.02 5-1.7 14.18-16.5 18.95-13.97 5.1-1.38 18.56-17.04 6.12-10.92-5.03 3.93-9.16-2.3-6.64-5.67 3.66-7.63-6.86.44-4.8-3.76 3.2-5.77 1.48-11.34-3.5-15.9zM1947 897.55c-2 3.95-7.62 19.24-2.72 21.3 9.88 1.92 19.3-11.44 22.8-16.85 2.62-4.28 1.57-5.24-4.28-3.58-4.03 1.68-13.1 1.4-13.02-3.06.52-2.72-2.65 2-2.8 2.2zM862.24 1146.7c-14.6-2.23-27.55-5.92-42.37-8.38-14.94-2.44-25.5-6.1-22.63-8.04.67-1.46 1.7-8.88 1.14-8.9-6.26-6.3-21.5-12.64-21.77-23.33.13-2.8 4-1.84 3.64-4.2-4.92-5.4-6.24-5.05-10.5-11-4.4-9.47 8.86-12 10.7-15.3-6.3-10.3 20.97-3.76-.05-9.52-14.96 2.9-24.06 8.18-28.66 6.56-1.46 6.4-4.58-.56-7.2 3.4-.9 4.66 7.22 1.93-1.1 10.56-7.4 10.1-3.5 3.05-9.4 3.67-4.1 1.12-4.42 7.65-.6 7.7 10.34-.52 7.92 8.6 7.87 12.22-5.26-2.37-10.55-8.23-16.38-5.15 2.37 9.5-12.17 1.45-15 6.38 3.57 4.53 4 3.16 1.52 6.72 28.1 3.03 1.08 5.6 15.6 7.34 14.68.15 6.58 7.42 6.97 6.38-1.25-4.55-28.08-6.28-28.17-4.72-6.57 11.54-26.78 2.7-34.95 2.27-4.32 1.04-11.9-4.2-15.43-1.66-4.35 1.22-9.73-.1-13.43-.16-13-.72-21.8-4.3-30.97-4.37-6.87-.52-12.65.67-18.8 2.97l3.22 2.7c5.8 4.87 8.26 4.92 14.85 9.27 3.2 3.1 13.53 5.22-.38 3.94-7.94 5.02-36.34-14.38-40.75-9.6 9.43 3.56 14.55 6.22 8.46 6.63-28.82 2.43-56.9-6.82-86.9-7.43 1.05 10.26-15.44 6.8-30.18 8.83-3.5 1.37-10.8 1.14-10.32 2.7-6 5.95-15.33-1.55-25.3 3.33-11 8.46-7.44 8.5-23.5 7.77-12.77 3.22-14.6 2.46-37.52 9.87 24.04 12.06 62.07 25.86 105.13 40.2l11.8 3.57h640.38l640.38.1c40.57-10.85 80.96-26.82 117.94-41.93 4.8-2 16.7-5.07-7-5.33-13.2 2.54-45.6-9.17-56.07-5.33-10.37-1.98-25.53 4.58-27.8 1.93-.86-1.5 4.03-5.42 10.6-8.65 17.43-2.57 34.15-14.6 50.13-14.6 4.84.06 26.64-9.78 28.4-11.96 1.17-2.15-15.15-6.87-18.8-7-8.02-.6-13.03-2-18.33-6.54-12.38-1.77-13.36-5.44-14.07-6.12-5.74-1.16-16.42-1.53-23.33-1.22-13.72-10.02-32.24-12.42-47.43-13.28-10.24-.7 3.76-9.12-3.06-9.26-1.3 0-5.16 3.5-6.3 5.77-6.33 4.87-16.06.47-24.63 2.8-26.46.3-27.05.12-50.75 3.57-10.57 1.13-21.6.22-27.7-5.4-15.25 4.57-38.04.24-51 .25-15.43-1.53-15.66-7.78-20.02-11.9-9.24 2.25-17.18 7.1-27.7 14.7-6.48.92-28.7 3.58-29.17.07-4.16-8.22-29.75 1.7-38.44 5.68-13.5 6.6-28.46 10.06-41.76 14.85-6.92 1.6-20.68-8.7-19.92-10.57-12.77-3.05-36.07-1.48-53.03-5.15-12.12-2.1-5.1-9.03-21.83-8.3-28.74 6.93-46.3 15.38-72.78 18.96-10.76 3.38-13.05 4.87-24.64 0-6.56-.64-14.14-.18-20.62 1.83-17.52 6.93-45.14 9-60.46 5.07-18.67-6.64-44.47.85-53.38 1.13-2.66 1.64-39.15-1.64-39.92-1.04-1.66 1.66-19.22 3.58-34.95 3.84-12.13 2.2-19.96 6.56-28.74 11.45-12.6 5.77-13.6-2.13-19.84 7.86-6 6.2-10.8 3.27-18.6 6.1 3.96 4.43 2.32 5.02-8.14 7-8.8 3.43-17.77 6.12-26.64 10.4-3.58 2-4.54 2.18-12.5 1.75-12.93-3.08-25.9.93-38.12-.12 1.28-.9-11.85-3.63-19-4.6z"/></g></svg>